<?xml version="1.0" encoding="utf-8"?>
<!-- Generator: Adobe Illustrator 24.1.0, SVG Export Plug-In . SVG Version: 6.00 Build 0)  -->
<svg version="1.1" id="Layer_1" xmlns="http://www.w3.org/2000/svg" xmlns:xlink="http://www.w3.org/1999/xlink" x="0px" y="0px"
	 viewBox="0 0 1200 800" style="enable-background:new 0 0 1200 800;" xml:space="preserve">
<style type="text/css">
	.st0{fill:#FFFFFF;}
</style>
<path class="st0" d="M967.1,204.2H719.4v-70.8h247.8V204.2z M1028.2,558.1c-15.6,45.9-71.8,106.2-180.6,106.2
	c-108.8,0-196.9-61.2-196.9-200.9c0-138.4,82.3-209.5,193.5-209.5c109.1,0,175.7,63.1,190.3,156.7c2.8,17.9,3.9,42.1,3.4,75.7H753.7
	C758.3,600,877,603.6,916.1,558.1C916.1,558.1,1028.2,558.1,1028.2,558.1z M756.2,416.6h175.7c-3.7-54.8-40.2-78.5-87.7-78.5
	C792.3,338,763.6,365.2,756.2,416.6z M417.3,663.9H188.4V134.1h246.1C628.4,137,632,326.8,530.8,378.6
	C653.3,423.2,657.4,663.9,417.3,663.9z M294.6,345.8h126.9c88.8,0,102.9-106.2-11-106.2H294.6C294.6,239.6,294.6,345.8,294.6,345.8z
	 M414.6,452h-120v106.8h118.3C521,558.7,514.4,452,414.6,452z"/>
</svg>
