<svg xmlns:xlink="http://www.w3.org/1999/xlink" width="80" height="80" viewBox="0 0 80 80" fill="none" xmlns="http://www.w3.org/2000/svg" class="w-full h-full rotate-star"><path fill-rule="evenodd" clip-rule="evenodd" d="M35.7483 0V9.64683L38.904 37.0364C38.9008 37.0375 38.8976 37.0386 38.8944 37.0398L21.5435 15.5315L14.7222 8.71016L11.8269 11.6054L11.8274 11.6059L8.71009 14.7232L15.5314 21.5445L37.0661 38.6296C37.0576 38.646 37.0491 38.6625 37.0408 38.679L9.64683 35.7482L0 35.7482V39.8423V39.8427V44.2517H9.64683L36.8347 41.1193C36.847 41.1599 36.8601 41.2002 36.874 41.2402L15.5314 58.4574L8.71009 65.2787L11.6046 68.1733L11.6043 68.1736L14.7222 71.2916L21.5436 64.4703L38.4954 43.1035C38.548 43.1304 38.6013 43.1559 38.6554 43.18L35.7483 70.3534V80.0002H39.8427L39.8427 80H44.2517V70.3532L41.1309 43.2662C41.1875 43.2456 41.2435 43.2235 41.2986 43.1999L58.4564 64.4688L65.2777 71.2901L68.173 68.3949L68.1724 68.3943L71.2898 65.2769L64.4685 58.4556L43.0421 41.4564C43.0592 41.4164 43.0756 41.3759 43.0912 41.335L70.3532 44.2517H80V40.1579L80 35.7485H70.3532L43.0567 38.8934C43.0487 38.8741 43.0405 38.8548 43.0321 38.8357L64.4686 21.5427L71.2899 14.7214L68.3952 11.8267L68.3957 11.8262L65.2778 8.70821L58.4564 15.5295L41.3226 37.1257C41.3192 37.1242 41.3158 37.1227 41.3123 37.1212L44.2517 9.64683V0H40.1577H40.1572H35.7483Z" fill="#FFFF05"></path></svg>