<svg xmlns:xlink="http://www.w3.org/1999/xlink" width="60" height="60" viewBox="0 0 60 60" fill="currentcolor" xmlns="http://www.w3.org/2000/svg" class="relative left-150 rotate-star enter-x delay-3 hidden m:inline-block" data-v-4a2790ca=""><path fill-rule="evenodd" clip-rule="evenodd" d="M26.8123 0V7.23512L29.1791 27.7773C29.1767 27.7782 29.1742 27.779 29.1718 27.7799L16.1587 11.6487L11.0427 6.53274L8.87126 8.70417L28.3949 28.2278C28.3949 28.2278 28.3949 28.2278 28.3949 28.2278L8.87123 8.7042L6.53277 11.0427L11.6488 16.1587L27.8001 28.9727C27.7938 28.9848 27.7876 28.9969 27.7815 29.0091L7.23512 26.8109L0 26.8109V29.8817V29.8818V33.1888H7.23512L27.6266 30.8394C27.6359 30.8699 27.6457 30.9002 27.6561 30.9302L11.6493 43.8429L6.53333 48.9589L8.70402 51.1296L8.70325 51.1304L11.0417 53.4688L16.1577 48.3528L28.8718 32.3276C28.911 32.3476 28.9508 32.3667 28.9912 32.3847L26.8108 52.7646V59.9997H29.8816H33.1881V52.7646L30.8476 32.4503C30.8902 32.4348 30.9323 32.4182 30.9738 32.4005L43.8418 48.3517L48.9578 53.4677L51.1292 51.2963L31.7296 31.8967C31.7296 31.8967 31.7296 31.8967 31.7296 31.8966L51.1292 51.2963L53.4677 48.9578L48.3517 43.8418L32.2822 31.0927C32.2951 31.0625 32.3074 31.0321 32.3191 31.0014L52.7651 33.1888H60.0002V30.1179H60V26.8111H52.7649L32.293 29.1697C32.2869 29.1551 32.2807 29.1405 32.2743 29.126L48.3511 16.1568L53.4671 11.0408L51.2966 8.87025L51.2973 8.86952L48.9589 6.53106L43.8429 11.6471L30.9924 27.8443C30.99 27.8433 30.9875 27.8422 30.9851 27.8412L33.1897 7.23512V0H30.1194H30.1188H26.8123Z" fill="#7B7B7B" data-v-4a2790ca=""></path></svg>