<?xml version="1.0" encoding="utf-8"?>
<!-- Generator: Adobe Illustrator 24.1.0, SVG Export Plug-In . SVG Version: 6.00 Build 0)  -->
<svg version="1.1" id="Layer_1" xmlns="http://www.w3.org/2000/svg" xmlns:xlink="http://www.w3.org/1999/xlink" x="0px" y="0px"
	 viewBox="0 0 1200 800" style="enable-background:new 0 0 1200 800;" xml:space="preserve">
<style type="text/css">
	.st0{fill:#FFFFFF;}
</style>
<path class="st0" d="M930.7,198.8c-23.9,10.6-49.6,17.8-76.6,21c27.5-16.5,48.7-42.6,58.6-73.7c-25.7,15.3-54.3,26.4-84.7,32.3
	c-24.3-25.9-59-42.1-97.3-42.1c-86.1,0-149.3,80.3-129.9,163.6c-110.7-5.5-209-58.6-274.7-139.3c-34.9,59.9-18.1,138.3,41.2,178
	c-21.8-0.7-42.4-6.7-60.3-16.7c-1.5,61.7,42.8,119.5,106.9,132.4c-18.8,5.1-39.3,6.3-60.2,2.3c16.9,53,66.2,91.5,124.5,92.6
	c-56,43.9-126.6,63.6-197.3,55.2c59,37.8,129.1,59.9,204.3,59.9c247.5,0,387.3-209,378.9-396.5C890.2,249,912.8,225.5,930.7,198.8z"
	/>
</svg>
