<svg xmlns:xlink="http://www.w3.org/1999/xlink" data-v-3ee580b6="" width="163" height="153" viewBox="0 0 163 153" fill="none" xmlns="http://www.w3.org/2000/svg" class="shrink-0 order-for-mobile mb-20 m:mb-0 s:mx-60 enter-y delay-2"><path data-v-3ee580b6="" d="M10.5767 74.515C10.5767 60.9813 16.945 50.01 24.8008 50.01C32.6566 50.01 39.025 60.9813 39.025 74.515M10.5767 74.515C10.5767 47.4475 23.3134 25.505 39.025 25.505C54.7366 25.505 67.4733 47.4475 67.4733 74.515M10.5767 74.515C10.5767 33.9138 29.6818 1 53.2492 1C76.8165 1 95.9217 33.9138 95.9217 74.515M124.37 74.515C124.37 60.9813 130.738 50.01 138.594 50.01C146.45 50.01 152.818 60.9813 152.818 74.515M67.4733 93.3867C67.4733 106.92 73.8417 117.892 81.6975 117.892C89.5533 117.892 95.9217 106.92 95.9217 93.3867M39.025 93.3867C39.025 125.743 58.1301 151.973 81.6975 151.973C105.265 151.973 124.37 125.743 124.37 93.3867M19.8717 83.9508C19.8717 89.1621 15.6471 93.3867 10.4358 93.3867C5.22457 93.3867 1 89.1621 1 83.9508C1 78.7396 5.22457 74.515 10.4358 74.515C15.6471 74.515 19.8717 78.7396 19.8717 83.9508ZM48.32 83.9508C48.32 89.1621 44.0954 93.3867 38.8842 93.3867C33.6729 93.3867 29.4483 89.1621 29.4483 83.9508C29.4483 78.7396 33.6729 74.515 38.8842 74.515C44.0954 74.515 48.32 78.7396 48.32 83.9508ZM76.7683 83.9508C76.7683 89.1621 72.5438 93.3867 67.3325 93.3867C62.1212 93.3867 57.8967 89.1621 57.8967 83.9508C57.8967 78.7396 62.1212 74.515 67.3325 74.515C72.5438 74.515 76.7683 78.7396 76.7683 83.9508ZM105.217 83.9508C105.217 89.1621 100.992 93.3867 95.7808 93.3867C90.5696 93.3867 86.345 89.1621 86.345 83.9508C86.345 78.7396 90.5696 74.515 95.7808 74.515C100.992 74.515 105.217 78.7396 105.217 83.9508ZM133.665 83.9508C133.665 89.1621 129.44 93.3867 124.229 93.3867C119.018 93.3867 114.793 89.1621 114.793 83.9508C114.793 78.7396 119.018 74.515 124.229 74.515C129.44 74.515 133.665 78.7396 133.665 83.9508ZM162.113 83.9508C162.113 89.1621 157.889 93.3867 152.677 93.3867C147.466 93.3867 143.242 89.1621 143.242 83.9508C143.242 78.7396 147.466 74.515 152.677 74.515C157.889 74.515 162.113 78.7396 162.113 83.9508Z" stroke="#6F6F6F" stroke-width="0.845px" stroke-linecap="round" stroke-linejoin="round" fill="none"></path></svg>