<svg xmlns:xlink="http://www.w3.org/1999/xlink" data-v-3ee580b6="" width="158" height="150" viewBox="0 0 158 150" fill="none" xmlns="http://www.w3.org/2000/svg" class="shrink-0 order-for-mobile mb-20 m:mb-0 s:mx-60 enter-y delay-2"><path data-v-3ee580b6="" d="M59.138 94.8575C71.4026 100.271 85.7328 100.596 98.6416 94.8994M59.138 94.8575C60.7045 80.9013 68.1265 68.7181 78.8875 60.8266M59.138 94.8575C58.9342 96.6736 58.8295 98.5197 58.8295 100.39C58.8295 127.46 80.7554 149.405 107.802 149.405C134.849 149.405 156.775 127.46 156.775 100.39C156.775 73.3201 134.849 51.3754 107.802 51.3754C96.987 51.3754 86.9906 54.8842 78.8875 60.8266M59.138 94.8575C49.9538 90.8039 41.9279 83.8973 36.5246 74.5304C23.0012 51.087 31.0266 21.11 54.4499 7.57492C77.8732 -5.96014 107.824 2.07217 121.348 25.5156C134.871 48.959 126.846 78.936 103.423 92.4711C101.856 93.3764 100.26 94.1852 98.6416 94.8994M98.6416 94.8994C97.0853 80.9257 89.6593 68.726 78.8875 60.8266M98.6416 94.8994C98.8424 96.702 98.9455 98.534 98.9455 100.39C98.9455 127.46 77.0196 149.405 49.9727 149.405C22.9258 149.405 1 127.46 1 100.39C1 73.3201 22.9258 51.3754 49.9727 51.3754C60.788 51.3754 70.7844 54.8842 78.8875 60.8266M67.2035 72.9705L82.7653 63.9859M62.6526 81.3717L86.4186 67.6504M60.276 88.5177L89.6014 71.5866M59.2272 94.897L92.3353 75.782M65.375 97.1213L94.6258 80.2334M72.7346 98.646L96.4646 84.9455M82.2293 98.9381L97.8282 89.932" stroke="#6F6F6F" stroke-width="1.005px" stroke-linecap="round" stroke-linejoin="round" fill="none"></path></svg>