<svg xmlns:xlink="http://www.w3.org/1999/xlink" width="82" height="81" viewBox="0 0 82 81" fill="none" xmlns="http://www.w3.org/2000/svg" class="w-full h-full rotate-star"><path fill-rule="evenodd" clip-rule="evenodd" d="M36.6252 0V9.76742L39.8143 37.4997C39.8114 37.5007 39.8085 37.5017 39.8056 37.5027L22.2714 15.7256L15.378 8.81897L12.4522 11.7504L12.4527 11.751L9.30264 14.9071L16.196 21.8137L37.9578 39.112C37.949 39.1287 37.9404 39.1456 37.932 39.1625L10.2487 36.1951L0.5 36.1951V40.3403V40.3408V44.8049H10.2487L37.7235 41.6333C37.736 41.6746 37.7493 41.7155 37.7634 41.7561L16.196 59.188L9.3026 66.0946L12.2277 69.0253L12.2271 69.0259L15.378 72.1828L22.2714 65.2762L39.4021 43.6426C39.4552 43.6698 39.5091 43.6956 39.5638 43.72L36.626 71.2325V81H40.7637H45.219V71.2325L42.0652 43.8072C42.1225 43.7863 42.1791 43.7638 42.2349 43.7399L59.5737 65.2744L66.4671 72.181L69.3929 69.2496L69.3924 69.249L72.5426 66.0928L65.6492 59.1862L43.9966 41.9746C44.0139 41.9341 44.0304 41.8931 44.0462 41.8518L71.5962 44.8049H81.3449V40.6592H81.3447V36.1951H71.596L44.0111 39.3795C44.003 39.3599 43.9948 39.3404 43.9863 39.3209L65.6491 21.8119L72.5425 14.9053L69.6174 11.9746L69.6179 11.9741L66.467 8.81717L59.5736 15.7238L42.2588 37.5899C42.2551 37.5883 42.2514 37.5867 42.2478 37.5851L45.2182 9.76742V0H41.0812H41.0804H36.6252Z" fill="#2D2C2D"></path></svg>