<svg xmlns:xlink="http://www.w3.org/1999/xlink" data-v-3ee580b6="" width="140" height="140" viewBox="0 0 140 140" fill="none" xmlns="http://www.w3.org/2000/svg" class="shrink-0 order-for-mobile mb-20 m:mb-0 s:mx-60 enter-y delay-2"><path data-v-3ee580b6="" d="M70.0001 139.535C85.593 139.535 98.2335 126.895 98.2335 111.302C98.2335 95.7092 85.593 83.0688 70.0001 83.0688C54.4073 83.0688 41.7668 95.7092 41.7668 111.302C41.7668 126.895 54.4073 139.535 70.0001 139.535ZM70.0001 139.535C100.799 139.535 125.767 114.568 125.767 83.7688C125.767 52.9697 100.799 28.0021 70.0001 28.0021C39.2011 28.0021 14.2335 52.9697 14.2335 83.7688C14.2335 114.568 39.2011 139.535 70.0001 139.535ZM70.0001 139.535C108.402 139.535 139.533 108.404 139.533 70.0021C139.533 31.5999 108.402 0.46875 70.0001 0.46875C31.5979 0.46875 0.466797 31.5999 0.466797 70.0021C0.466797 108.404 31.5979 139.535 70.0001 139.535ZM66.5001 14.1188H73.7335M66.5001 41.6521H70.1168M70.1168 41.6521H73.7335M70.1168 41.6521V38.0354M70.1168 41.6521V45.2688M66.5001 69.8854H73.7335M66.5001 111.419H70.1168M70.1168 111.419H73.7335M70.1168 111.419V107.802M70.1168 111.419V115.035M112.7 96.9521C112.7 120.47 93.6349 139.535 70.1168 139.535C46.5987 139.535 27.5335 120.47 27.5335 96.9521C27.5335 73.434 46.5987 54.3688 70.1168 54.3688C93.6349 54.3688 112.7 73.434 112.7 96.9521Z" stroke="#6F6F6F" stroke-width="0.7px" stroke-linecap="round" stroke-linejoin="round" fill="none"></path></svg>